<svg width="150" height="46" viewBox="0 0 150 46" fill="none" xmlns="http://www.w3.org/2000/svg">
<path d="M59.4424 26.5024C57.8365 26.5024 56.2816 25.9387 55.0488 24.9095C53.7214 23.8377 53.0411 22.351 53.0411 20.4894C53.0315 18.9729 53.5939 17.5086 54.6162 16.3886C55.6385 15.2685 57.0454 14.575 58.5564 14.4464C58.9124 14.4073 59.2702 14.3874 59.6283 14.3867C61.1336 14.3544 62.6073 14.8211 63.8195 15.7141C65.6712 17.0647 66.451 18.9595 66.1424 21.3555C65.8371 23.6784 64.4301 25.321 62.0773 26.0743C61.2282 26.3563 60.3404 26.5041 59.4458 26.5124L59.4424 26.5024ZM59.6017 17.1012C57.7699 17.1012 56.4857 18.475 56.4757 20.4429C56.4658 22.4107 57.7368 23.7614 59.5553 23.7813H59.5984C61.4402 23.7813 62.7078 22.4539 62.751 20.5126C62.7735 20.056 62.7047 19.5995 62.5486 19.1698C62.3925 18.7402 62.1521 18.346 61.8417 18.0105C61.55 17.7189 61.2032 17.4883 60.8215 17.3322C60.4397 17.1761 60.0307 17.0976 59.6183 17.1012H59.6017Z" fill="white"/>
<path d="M86.8365 26.1706V25.8587C86.8365 25.2448 86.8365 24.6275 86.8365 24.0103C86.8365 22.6066 86.8365 21.1531 86.8 19.7195C86.7502 18.1366 85.8045 17.2274 84.2315 17.2274H84.0855C82.6055 17.2772 81.5635 18.3822 81.5569 19.9187C81.5569 21.1166 81.5569 22.3146 81.5569 23.5125V26.0014C81.5569 26.0545 81.5569 26.1076 81.5569 26.164H78.0127V24.382C78.0127 22.9683 78.0127 21.5547 78.0127 20.141C78.018 19.7201 77.9667 19.3004 77.8601 18.8932C77.5515 17.8313 76.6621 17.234 75.421 17.234C75.3082 17.234 75.1954 17.234 75.0892 17.234C74.5324 17.2677 74.0034 17.4891 73.5888 17.8622C73.1741 18.2353 72.8982 18.738 72.8061 19.2881C72.7535 19.7885 72.7302 20.2916 72.7364 20.7947V20.871C72.7364 22.1984 72.7364 23.5258 72.7364 24.8698V26.1607H69.2056V14.6821H70.2343C70.5661 14.6821 70.898 14.6821 71.2 14.6821L71.482 15.3458C71.5517 15.5151 71.6214 15.6976 71.701 15.9L72.0561 16.8093L72.4079 16.3281C73.3802 15.0007 74.6578 14.3768 76.4232 14.3768H76.5958C78.411 14.4233 79.7649 15.0405 80.7306 16.2584L81.0027 16.5902L81.2582 16.2352C82.4064 14.6124 84.3012 14.3702 85.3299 14.3702C86.4008 14.3465 87.4571 14.6223 88.3796 15.1666C88.987 15.549 89.488 16.0786 89.8361 16.7063C90.1842 17.334 90.3681 18.0394 90.3707 18.7572C90.4238 20.5492 90.4138 22.3079 90.4039 24.1696C90.4039 24.8333 90.4039 25.497 90.4039 26.1607L86.8365 26.1706Z" fill="white"/>
<path d="M99.8946 26.5389C98.4401 26.5833 97.0064 26.1853 95.783 25.3973C93.772 24.0467 92.9258 22.0789 93.2576 19.5834C93.6061 16.9552 95.1293 15.2694 97.784 14.5858C98.3582 14.4354 98.9492 14.3584 99.5428 14.3568C100.358 14.3575 101.166 14.5106 101.925 14.8081C103.983 15.6112 105.098 17.1808 105.337 19.6C105.363 19.9378 105.368 20.2769 105.353 20.6154V20.861H96.606L96.6524 21.2293C96.8582 22.8421 98.0661 23.8609 99.8846 23.9571C99.9875 23.9571 100.094 23.9571 100.2 23.9571C101.302 23.9438 102.389 23.689 103.382 23.2105L104.361 25.3608C104.348 25.3716 104.334 25.3805 104.318 25.3874C104.252 25.4305 104.192 25.467 104.155 25.4969C103.259 26.0121 102.266 26.3384 101.239 26.4559C100.792 26.5089 100.344 26.5366 99.8946 26.5389ZM99.4399 16.8058C97.9499 16.8058 96.9013 17.672 96.6989 19.069L96.6425 19.444H102.038L101.998 19.0923C101.951 18.4644 101.664 17.8788 101.197 17.4564C100.73 17.034 100.119 16.807 99.4897 16.8224L99.4399 16.8058Z" fill="white"/>
<path d="M37.8062 26.1639V3.70459H41.4332V16.2749L41.9974 15.6875C42.4512 15.2487 42.9883 14.9051 43.5771 14.6771C44.1658 14.4492 44.7943 14.3414 45.4253 14.3602C47.2837 14.3602 48.8898 15.2296 49.6199 16.63C50.0347 17.4401 50.2487 18.3381 50.2438 19.2483C50.2637 21.007 50.2438 22.7957 50.2438 24.5279V26.1407H46.6764V25.8785C46.6764 25.3443 46.6764 24.81 46.6764 24.2757C46.6764 22.8587 46.6764 21.3887 46.6432 19.9617C46.6167 19.3008 46.4189 18.6581 46.0691 18.0967C45.8539 17.7915 45.5639 17.5467 45.2269 17.3857C44.8898 17.2247 44.5171 17.1531 44.1444 17.1775C43.7971 17.1784 43.4521 17.2344 43.1223 17.3435C42.6277 17.4918 42.194 17.7956 41.8855 18.2099C41.5771 18.6241 41.4103 19.1267 41.41 19.6432C41.41 21.0767 41.41 22.5147 41.41 23.9571V26.1739L37.8062 26.1639Z" fill="white"/>
<path d="M109.405 26.164V8.97103H102.486V5.92468H119.809V8.95112H112.979V26.164H109.405Z" fill="white"/>
<path d="M133.142 14.7119H129.674V26.1772H133.142V14.7119Z" fill="white"/>
<path d="M118.252 26.1607V14.6788H120.244L120.26 14.7153L120.293 14.7916L120.439 15.1235C120.539 15.369 120.638 15.6246 120.745 15.9066L121.037 16.6599L121.392 16.2816L121.594 16.0692C121.697 15.963 121.79 15.8701 121.873 15.7739C122.243 15.3551 122.7 15.0218 123.211 14.7972C123.723 14.5726 124.278 14.462 124.836 14.473C125.563 14.4732 126.279 14.6485 126.924 14.9841C127.008 15.036 127.089 15.0936 127.166 15.1566C127.136 15.2297 127.099 15.3159 127.063 15.3889C126.731 16.0792 126.399 16.7827 126.114 17.4663L125.895 17.9574L125.736 17.9043C125.423 17.7838 125.098 17.7003 124.767 17.6554C124.647 17.6554 124.528 17.6554 124.412 17.6554C122.812 17.6554 121.757 18.7505 121.757 20.4463V26.1607H118.252Z" fill="white"/>
<path d="M136.909 32.8971V14.6821H139.006C139.011 14.7252 139.025 14.7669 139.046 14.8049C139.169 15.077 139.288 15.3657 139.414 15.6677C139.477 15.8236 139.544 15.9995 139.613 16.1488L139.789 16.5637L140.121 16.2716L140.23 16.182C140.302 16.1272 140.371 16.0685 140.436 16.0061C141.608 14.8845 142.759 14.3834 144.183 14.3834C144.312 14.3834 144.442 14.3834 144.578 14.3834C146.728 14.5162 148.291 15.4553 149.223 17.1776C150.657 19.8323 150.173 24.007 147.179 25.7126C146.342 26.2062 145.39 26.4706 144.418 26.4792C143.725 26.4741 143.039 26.3414 142.394 26.0876C142.062 25.9377 141.75 25.7495 141.462 25.5268C141.302 25.414 141.13 25.2945 140.961 25.195L140.453 24.8631V32.8971H136.909ZM143.313 17.2273C141.468 17.2273 140.257 18.495 140.227 20.4496C140.211 20.8753 140.28 21.2999 140.43 21.6987C140.58 22.0975 140.808 22.4625 141.1 22.7725C141.39 23.0586 141.733 23.2842 142.111 23.4363C142.489 23.5884 142.893 23.664 143.3 23.6585C143.703 23.6662 144.104 23.5936 144.479 23.4449C144.854 23.2962 145.195 23.0744 145.484 22.7924C145.779 22.4834 146.01 22.1192 146.165 21.7206C146.319 21.3219 146.393 20.8968 146.383 20.4695C146.383 18.6078 145.089 17.2506 143.323 17.2473L143.313 17.2273Z" fill="white"/>
<path d="M31.6274 26.4792C30.9879 26.4785 30.3534 26.3662 29.7525 26.1473C29.0167 25.9151 28.3672 25.4681 27.8876 24.8637C27.408 24.2593 27.1202 23.5252 27.0612 22.7559C26.9694 21.7476 26.9306 20.7352 26.9451 19.7228C26.9451 19.2715 26.9451 18.8202 26.9451 18.3722C26.9451 18.2361 26.9451 18.1001 26.9451 17.9507V17.37H24.8213V14.7152H26.9484V12.0937C27.4927 11.7618 27.9805 11.43 28.4948 11.0981C29.1021 10.69 29.7293 10.2718 30.5124 9.79065V14.6522H34.3419V17.3302H30.539V19.6531C30.539 19.8887 30.539 20.1243 30.539 20.3633C30.539 20.7438 30.539 21.1287 30.539 21.5181C30.5124 21.7974 30.5425 22.0793 30.6274 22.3467C30.7124 22.6142 30.8505 22.8617 31.0334 23.0744C31.2165 23.2454 31.4323 23.3774 31.6679 23.4624C31.9035 23.5474 32.1539 23.5836 32.404 23.5689C32.6592 23.5668 32.9137 23.5401 33.1639 23.4893C33.4137 23.4269 33.6587 23.3471 33.8973 23.2503L34.9393 25.5367C34.3419 25.9193 33.6812 26.1923 32.988 26.3431C32.54 26.4323 32.0843 26.4779 31.6274 26.4792Z" fill="white"/>
<path d="M19.0769 26.1407L17.8457 23.6253L20.2748 20.8544L22.9296 26.0809C22.4252 26.0809 21.9108 26.0809 21.4097 26.1108C20.746 26.1108 20.0525 26.1407 19.4021 26.1407H19.0769Z" fill="white"/>
<path d="M5.10276 26.1042C4.51207 26.1042 3.91475 26.1042 3.31079 26.1042L2 26.0777L2.26548 25.5534C2.53759 25.0125 2.80639 24.4882 3.07186 23.9638C4.50876 21.1664 6.01865 18.2229 7.52855 15.2695C9.14133 12.1203 10.7574 8.9644 12.2972 5.97778H12.5726C13.3757 7.53082 14.119 8.94449 14.8657 10.3648C15.7185 11.9908 16.6012 13.6832 17.5769 15.5615L15.2539 18.2163C14.7761 17.1875 14.3712 16.3247 13.9465 15.4221L12.9509 13.3049L12.9244 13.2452L12.9011 13.212C12.8552 13.1523 12.8029 13.0978 12.7452 13.0494L12.6556 12.9764H12.2872L12.191 13.0328C12.094 13.101 12.0117 13.1879 11.9487 13.2884L11.9288 13.3249V13.3547C11.4775 14.3104 10.9067 15.5283 10.4986 16.4077C9.97758 17.536 9.43003 18.7107 8.89244 19.8622L5.83282 26.0976L5.10276 26.1042Z" fill="white"/>
<path d="M13.1069 22.8787L21.5922 13.1954L22.4915 16.202L14.0029 25.8852L13.1069 22.8787Z" fill="#FF6F61"/>
<path d="M128.516 10.2486L135.355 2.5L136.251 5.50984L129.415 13.2618L128.516 10.2486Z" fill="#FF6F61"/>
<path d="M0.215909 42.5L1.90625 32.3182H5.19247C5.91501 32.3182 6.49669 32.4557 6.9375 32.7308C7.37831 33.0059 7.68158 33.3804 7.8473 33.8544C8.01634 34.3284 8.05114 34.8636 7.9517 35.4602C7.85559 36.0502 7.64347 36.5838 7.31534 37.0611C6.99053 37.535 6.56132 37.9112 6.0277 38.1896C5.4974 38.468 4.87429 38.6072 4.15838 38.6072H1.57315L1.71236 37.772H4.27273C4.80634 37.772 5.26539 37.6726 5.64986 37.4737C6.03764 37.2715 6.34754 36.9964 6.57955 36.6484C6.81155 36.2971 6.96402 35.901 7.03693 35.4602C7.10985 35.0128 7.08665 34.6151 6.96733 34.267C6.85133 33.919 6.63258 33.6473 6.31108 33.4517C5.9929 33.2528 5.56534 33.1534 5.02841 33.1534H2.69673L1.1456 42.5H0.215909ZM10.8949 42.674C10.4342 42.674 10.0282 42.5845 9.67685 42.4055C9.32552 42.2232 9.06368 41.9614 8.89134 41.62C8.7223 41.2753 8.6759 40.8577 8.75213 40.3672C8.81842 39.9893 8.94437 39.6712 9.12997 39.4126C9.31889 39.1541 9.55753 38.942 9.84588 38.7763C10.1342 38.6072 10.4657 38.4747 10.8402 38.3786C11.2147 38.2824 11.6224 38.2095 12.0632 38.1598C12.4941 38.1068 12.862 38.0604 13.1669 38.0206C13.4718 37.9808 13.7088 37.9179 13.8778 37.8317C14.0469 37.7455 14.148 37.6063 14.1811 37.4141L14.2109 37.2351C14.2971 36.7147 14.2176 36.3054 13.9723 36.0071C13.727 35.7055 13.3161 35.5547 12.7393 35.5547C12.1892 35.5547 11.7119 35.6773 11.3075 35.9226C10.9065 36.1645 10.6082 36.4479 10.4126 36.7727L9.62713 36.4695C9.86577 36.0518 10.1591 35.7187 10.5071 35.4702C10.8551 35.2183 11.228 35.0376 11.6257 34.9283C12.0234 34.8156 12.4162 34.7592 12.804 34.7592C13.0956 34.7592 13.3923 34.7973 13.6939 34.8736C13.9955 34.9498 14.2656 35.0824 14.5043 35.2713C14.7462 35.4569 14.9235 35.7171 15.0362 36.0518C15.1522 36.3833 15.1688 36.8042 15.0859 37.3146L14.2209 42.5H13.3359L13.5398 41.2919H13.4851C13.3459 41.5173 13.1536 41.736 12.9084 41.9482C12.6664 42.1603 12.3764 42.3343 12.0384 42.4702C11.7003 42.6061 11.3191 42.674 10.8949 42.674ZM11.1186 41.8636C11.5893 41.8636 12.0152 41.7592 12.3963 41.5504C12.7808 41.3416 13.0956 41.0649 13.3409 40.7202C13.5895 40.3722 13.7486 39.9893 13.8182 39.5717L14.0021 38.468C13.9292 38.531 13.8099 38.5874 13.6442 38.6371C13.4818 38.6868 13.2978 38.7315 13.0923 38.7713C12.8902 38.8078 12.6863 38.8393 12.4808 38.8658C12.2786 38.8923 12.0997 38.9155 11.9439 38.9354C11.5031 38.9884 11.1186 39.0713 10.7905 39.1839C10.4657 39.2966 10.2055 39.4524 10.0099 39.6513C9.81439 39.8468 9.69176 40.0987 9.64205 40.407C9.56581 40.871 9.6669 41.2306 9.94531 41.4858C10.227 41.7377 10.6181 41.8636 11.1186 41.8636ZM16.5749 42.5L17.8477 34.8636H18.7077L18.5089 36.0369H18.5735C18.7856 35.6525 19.1022 35.3426 19.5231 35.1072C19.9473 34.8686 20.3997 34.7493 20.8803 34.7493C20.9532 34.7493 21.0344 34.7509 21.1239 34.7543C21.2134 34.7543 21.288 34.7576 21.3477 34.7642L21.1935 35.6641C21.1538 35.6574 21.0842 35.6475 20.9847 35.6342C20.8886 35.621 20.7809 35.6143 20.6616 35.6143C20.2638 35.6143 19.896 35.6989 19.5579 35.8679C19.2231 36.0336 18.9414 36.264 18.7127 36.5589C18.4873 36.8539 18.3415 37.1903 18.2752 37.5682L17.4599 42.5H16.5749ZM26.3379 34.8636L26.2136 35.6342H22.5645L22.6937 34.8636H26.3379ZM24.1305 33.0341H25.0204L23.7775 40.5064C23.7245 40.8246 23.7377 41.0748 23.8173 41.2571C23.8968 41.4361 24.0195 41.5637 24.1852 41.6399C24.3509 41.7128 24.5332 41.7493 24.7321 41.7493C24.8481 41.7493 24.9475 41.7427 25.0304 41.7294C25.1165 41.7128 25.1928 41.6963 25.2591 41.6797L25.3237 42.4801C25.2276 42.5133 25.1132 42.5431 24.9806 42.5696C24.8481 42.5994 24.689 42.6143 24.5034 42.6143C24.1786 42.6143 23.8786 42.5431 23.6035 42.4006C23.3284 42.258 23.1196 42.0459 22.9771 41.7642C22.8346 41.4825 22.7965 41.1328 22.8627 40.7152L24.1305 33.0341ZM28.7504 37.7273L27.9599 42.5H27.0749L28.3477 34.8636H29.2077L29.0089 36.0618H29.0884C29.3271 35.6707 29.6568 35.3575 30.0778 35.1222C30.502 34.8835 30.9942 34.7642 31.5543 34.7642C32.0647 34.7642 32.4956 34.8719 32.8469 35.0874C33.2016 35.2995 33.4535 35.6127 33.6026 36.027C33.7551 36.4413 33.7816 36.95 33.6822 37.5533L32.8519 42.5H31.967L32.7823 37.608C32.8851 36.9848 32.7939 36.491 32.5089 36.1264C32.2272 35.7585 31.7913 35.5746 31.2013 35.5746C30.8003 35.5746 30.4274 35.6607 30.0827 35.8331C29.7414 36.0054 29.453 36.254 29.2177 36.5788C28.9824 36.9003 28.8266 37.2831 28.7504 37.7273ZM38.2498 42.6591C37.5372 42.6591 36.9489 42.4934 36.4849 42.1619C36.0209 41.8272 35.6961 41.3648 35.5105 40.7749C35.3249 40.1816 35.2967 39.4988 35.426 38.7266C35.5552 37.9576 35.8104 37.2749 36.1916 36.6783C36.5727 36.0784 37.0434 35.6094 37.6035 35.2713C38.1636 34.9299 38.7718 34.7592 39.4281 34.7592C39.8424 34.7592 40.2302 34.8355 40.5914 34.9879C40.9527 35.1371 41.2593 35.3674 41.5112 35.679C41.7664 35.9872 41.9437 36.3767 42.0431 36.8473C42.1426 37.3146 42.1393 37.8681 42.0332 38.5078L41.9636 38.9453H35.9977L36.122 38.1648H41.188C41.2709 37.6742 41.2477 37.2334 41.1184 36.8423C40.9892 36.4512 40.7688 36.1413 40.4572 35.9126C40.149 35.6806 39.7662 35.5646 39.3088 35.5646C38.8414 35.5646 38.399 35.6955 37.9814 35.9574C37.5671 36.2192 37.2157 36.5606 36.9274 36.9815C36.6423 37.3991 36.4584 37.8449 36.3755 38.3189L36.2761 38.9055C36.17 39.5518 36.1833 40.0938 36.3159 40.5312C36.4484 40.9654 36.6887 41.2936 37.0368 41.5156C37.3848 41.7377 37.8306 41.8487 38.3741 41.8487C38.7387 41.8487 39.0685 41.7924 39.3635 41.6797C39.6584 41.567 39.9153 41.4162 40.1341 41.2273C40.3528 41.035 40.5285 40.8246 40.661 40.5959L41.4515 40.8693C41.2825 41.1908 41.0439 41.4875 40.7356 41.7592C40.4307 42.031 40.0678 42.2498 39.6468 42.4155C39.2292 42.5779 38.7636 42.6591 38.2498 42.6591ZM43.3171 42.5L44.5898 34.8636H45.4499L45.2511 36.0369H45.3157C45.5278 35.6525 45.8443 35.3426 46.2653 35.1072C46.6895 34.8686 47.1419 34.7493 47.6225 34.7493C47.6954 34.7493 47.7766 34.7509 47.8661 34.7543C47.9556 34.7543 48.0302 34.7576 48.0898 34.7642L47.9357 35.6641C47.896 35.6574 47.8263 35.6475 47.7269 35.6342C47.6308 35.621 47.5231 35.6143 47.4038 35.6143C47.006 35.6143 46.6381 35.6989 46.3001 35.8679C45.9653 36.0336 45.6836 36.264 45.4549 36.5589C45.2295 36.8539 45.0837 37.1903 45.0174 37.5682L44.2021 42.5H43.3171Z" fill="white"/>
</svg>
