<?xml version="1.0" encoding="UTF-8"?> <svg xmlns="http://www.w3.org/2000/svg" width="82" height="42" viewBox="0 0 82 42" fill="none"><mask id="path-1-outside-1_5619_28326" maskUnits="userSpaceOnUse" x="0" y="-0.516113" width="82" height="43" fill="black"><rect fill="white" y="-0.516113" width="82" height="43"></rect><path d="M8.11196 19.5159C6.86607 19.5159 5.74131 19.2299 4.73767 18.6579C3.75134 18.0859 2.96401 17.2972 2.37567 16.2919C1.80464 15.2692 1.51912 14.0906 1.51912 12.7559C1.51912 11.4212 1.81329 10.2512 2.40163 9.24589C2.98996 8.22322 3.7773 7.42589 4.76363 6.85389C5.76726 6.28189 6.89202 5.99589 8.13791 5.99589C9.3665 5.99589 10.474 6.28189 11.4603 6.85389C12.4639 7.42589 13.2513 8.22322 13.8223 9.24589C14.4106 10.2512 14.7048 11.4212 14.7048 12.7559C14.7048 14.0906 14.4106 15.2692 13.8223 16.2919C13.2513 17.2972 12.4639 18.0859 11.4603 18.6579C10.4567 19.2299 9.34055 19.5159 8.11196 19.5159ZM8.11196 16.6299C8.97716 16.6299 9.72989 16.3092 10.3701 15.6679C11.0104 15.0092 11.3305 14.0386 11.3305 12.7559C11.3305 11.4732 11.0104 10.5112 10.3701 9.86989C9.72989 9.21122 8.98581 8.88189 8.13791 8.88189C7.25541 8.88189 6.49403 9.21122 5.85378 9.86989C5.23084 10.5112 4.91936 11.4732 4.91936 12.7559C4.91936 14.0386 5.23084 15.0092 5.85378 15.6679C6.49403 16.3092 7.24676 16.6299 8.11196 16.6299Z"></path><path d="M16.3775 19.2039V0.483887H19.6999V8.28389C20.1325 7.57322 20.7122 7.01855 21.439 6.61989C22.183 6.20389 23.0309 5.99589 23.9827 5.99589C25.5746 5.99589 26.8032 6.49855 27.6684 7.50389C28.5509 8.50922 28.9922 9.98255 28.9922 11.9239V19.2039H25.6958V12.2359C25.6958 11.1266 25.4708 10.2772 25.0209 9.68789C24.5883 9.09855 23.8961 8.80389 22.9444 8.80389C22.01 8.80389 21.2313 9.13322 20.6084 9.79189C20.0027 10.4506 19.6999 11.3692 19.6999 12.5479V19.2039H16.3775Z"></path><path d="M32.6623 4.30589C32.0567 4.30589 31.5549 4.12389 31.1569 3.75989C30.7762 3.39589 30.5858 2.93655 30.5858 2.38189C30.5858 1.82722 30.7762 1.37655 31.1569 1.02989C31.5549 0.665886 32.0567 0.483887 32.6623 0.483887C33.268 0.483887 33.7611 0.665886 34.1418 1.02989C34.5398 1.37655 34.7388 1.82722 34.7388 2.38189C34.7388 2.93655 34.5398 3.39589 34.1418 3.75989C33.7611 4.12389 33.268 4.30589 32.6623 4.30589ZM31.0011 19.2039V6.30789H34.3235V19.2039H31.0011Z"></path><path d="M42.671 19.5159C41.4251 19.5159 40.3004 19.2299 39.2967 18.6579C38.3104 18.0859 37.5231 17.2972 36.9347 16.2919C36.3637 15.2692 36.0782 14.0906 36.0782 12.7559C36.0782 11.4212 36.3724 10.2512 36.9607 9.24589C37.549 8.22322 38.3364 7.42589 39.3227 6.85389C40.3263 6.28189 41.4511 5.99589 42.697 5.99589C43.9256 5.99589 45.033 6.28189 46.0193 6.85389C47.023 7.42589 47.8103 8.22322 48.3814 9.24589C48.9697 10.2512 49.2639 11.4212 49.2639 12.7559C49.2639 14.0906 48.9697 15.2692 48.3814 16.2919C47.8103 17.2972 47.023 18.0859 46.0193 18.6579C45.0157 19.2299 43.8996 19.5159 42.671 19.5159ZM42.671 16.6299C43.5362 16.6299 44.2889 16.3092 44.9292 15.6679C45.5694 15.0092 45.8896 14.0386 45.8896 12.7559C45.8896 11.4732 45.5694 10.5112 44.9292 9.86989C44.2889 9.21122 43.5449 8.88189 42.697 8.88189C41.8145 8.88189 41.0531 9.21122 40.4128 9.86989C39.7899 10.5112 39.4784 11.4732 39.4784 12.7559C39.4784 14.0386 39.7899 15.0092 40.4128 15.6679C41.0531 16.3092 41.8058 16.6299 42.671 16.6299Z"></path><path d="M7.67071 41.2039C6.32099 41.2039 5.23949 40.8746 4.4262 40.2159C3.61291 39.5572 3.20626 38.3872 3.20626 36.7059V31.0899H1V28.3079H3.20626L3.59561 24.8499H6.52864V28.3079H10.0068V31.0899H6.52864V36.7319C6.52864 37.3559 6.65842 37.7892 6.91798 38.0319C7.19484 38.2572 7.66205 38.3699 8.31961 38.3699H9.92888V41.2039H7.67071Z"></path><path d="M11.5615 41.2039V22.4839H14.8839V30.2839C15.3165 29.5732 15.8961 29.0186 16.6229 28.6199C17.367 28.2039 18.2149 27.9959 19.1666 27.9959C20.7586 27.9959 21.9872 28.4986 22.8524 29.5039C23.7349 30.5092 24.1761 31.9826 24.1761 33.9239V41.2039H20.8797V34.2359C20.8797 33.1266 20.6547 32.2772 20.2048 31.6879C19.7722 31.0986 19.0801 30.8039 18.1284 30.8039C17.1939 30.8039 16.4153 31.1332 15.7923 31.7919C15.1867 32.4506 14.8839 33.3692 14.8839 34.5479V41.2039H11.5615Z"></path><path d="M32.3107 41.5159C31.0129 41.5159 29.8622 41.2386 28.8586 40.6839C27.8549 40.1292 27.0676 39.3492 26.4965 38.3439C25.9255 37.3386 25.64 36.1772 25.64 34.8599C25.64 33.5252 25.9169 32.3379 26.4706 31.2979C27.0416 30.2579 27.8203 29.4519 28.8066 28.8799C29.8103 28.2906 30.9869 27.9959 32.3367 27.9959C33.5999 27.9959 34.716 28.2732 35.685 28.8279C36.654 29.3826 37.4067 30.1452 37.9432 31.1159C38.4969 32.0692 38.7738 33.1352 38.7738 34.3139C38.7738 34.5046 38.7651 34.7039 38.7478 34.9119C38.7478 35.1199 38.7392 35.3366 38.7218 35.5619H28.9364C29.0056 36.5672 29.3517 37.3559 29.9747 37.9279C30.6149 38.4999 31.3849 38.7859 32.2847 38.7859C32.9596 38.7859 33.522 38.6386 33.9719 38.3439C34.4391 38.0319 34.7852 37.6332 35.0101 37.1479H38.3844C38.1422 37.9626 37.7355 38.7079 37.1645 39.3839C36.6108 40.0426 35.9186 40.5626 35.088 40.9439C34.2747 41.3252 33.3489 41.5159 32.3107 41.5159ZM32.3367 30.6999C31.5234 30.6999 30.8053 30.9339 30.1823 31.4019C29.5594 31.8526 29.1614 32.5459 28.9883 33.4819H35.3995C35.3476 32.6326 35.0361 31.9566 34.4651 31.4539C33.894 30.9512 33.1846 30.6999 32.3367 30.6999Z"></path><path d="M40.2703 41.2039V28.3079H43.2033L43.4888 30.0499C43.9041 29.4259 44.4492 28.9319 45.1241 28.5679C45.8162 28.1866 46.6122 27.9959 47.512 27.9959C49.502 27.9959 50.9123 28.7672 51.7429 30.3099C52.2101 29.5992 52.833 29.0359 53.6117 28.6199C54.4077 28.2039 55.2729 27.9959 56.2073 27.9959C57.8858 27.9959 59.1749 28.4986 60.0748 29.5039C60.9746 30.5092 61.4245 31.9826 61.4245 33.9239V41.2039H58.1021V34.2359C58.1021 33.1266 57.8858 32.2772 57.4532 31.6879C57.0379 31.0986 56.389 30.8039 55.5065 30.8039C54.6067 30.8039 53.8799 31.1332 53.3262 31.7919C52.7898 32.4506 52.5215 33.3692 52.5215 34.5479V41.2039H49.1992V34.2359C49.1992 33.1266 48.9829 32.2772 48.5503 31.6879C48.1177 31.0986 47.4515 30.8039 46.5517 30.8039C45.6691 30.8039 44.951 31.1332 44.3973 31.7919C43.8609 32.4506 43.5927 33.3692 43.5927 34.5479V41.2039H40.2703Z"></path><path d="M69.5363 41.5159C68.2385 41.5159 67.0878 41.2386 66.0842 40.6839C65.0806 40.1292 64.2932 39.3492 63.7222 38.3439C63.1512 37.3386 62.8656 36.1772 62.8656 34.8599C62.8656 33.5252 63.1425 32.3379 63.6962 31.2979C64.2673 30.2579 65.046 29.4519 66.0323 28.8799C67.0359 28.2906 68.2126 27.9959 69.5623 27.9959C70.8255 27.9959 71.9416 28.2732 72.9106 28.8279C73.8797 29.3826 74.6324 30.1452 75.1688 31.1159C75.7225 32.0692 75.9994 33.1352 75.9994 34.3139C75.9994 34.5046 75.9908 34.7039 75.9735 34.9119C75.9735 35.1199 75.9648 35.3366 75.9475 35.5619H66.1621C66.2313 36.5672 66.5774 37.3559 67.2003 37.9279C67.8406 38.4999 68.6106 38.7859 69.5104 38.7859C70.1852 38.7859 70.7476 38.6386 71.1975 38.3439C71.6647 38.0319 72.0108 37.6332 72.2358 37.1479H75.6101C75.3678 37.9626 74.9612 38.7079 74.3901 39.3839C73.8364 40.0426 73.1442 40.5626 72.3137 40.9439C71.5004 41.3252 70.5746 41.5159 69.5363 41.5159ZM69.5623 30.6999C68.749 30.6999 68.0309 30.9339 67.408 31.4019C66.785 31.8526 66.387 32.5459 66.214 33.4819H72.6251C72.5732 32.6326 72.2617 31.9566 71.6907 31.4539C71.1197 30.9512 70.4102 30.6999 69.5623 30.6999Z"></path><path d="M78.9235 41.3859C78.3179 41.3859 77.8161 41.1952 77.4181 40.8139C77.0374 40.4326 76.847 39.9732 76.847 39.4359C76.847 38.8812 77.0374 38.4132 77.4181 38.0319C77.8161 37.6506 78.3179 37.4599 78.9235 37.4599C79.5292 37.4599 80.0223 37.6506 80.403 38.0319C80.801 38.4132 81 38.8812 81 39.4359C81 39.9732 80.801 40.4326 80.403 40.8139C80.0223 41.1952 79.5292 41.3859 78.9235 41.3859Z"></path></mask><path d="M8.11196 19.5159C6.86607 19.5159 5.74131 19.2299 4.73767 18.6579C3.75134 18.0859 2.96401 17.2972 2.37567 16.2919C1.80464 15.2692 1.51912 14.0906 1.51912 12.7559C1.51912 11.4212 1.81329 10.2512 2.40163 9.24589C2.98996 8.22322 3.7773 7.42589 4.76363 6.85389C5.76726 6.28189 6.89202 5.99589 8.13791 5.99589C9.3665 5.99589 10.474 6.28189 11.4603 6.85389C12.4639 7.42589 13.2513 8.22322 13.8223 9.24589C14.4106 10.2512 14.7048 11.4212 14.7048 12.7559C14.7048 14.0906 14.4106 15.2692 13.8223 16.2919C13.2513 17.2972 12.4639 18.0859 11.4603 18.6579C10.4567 19.2299 9.34055 19.5159 8.11196 19.5159ZM8.11196 16.6299C8.97716 16.6299 9.72989 16.3092 10.3701 15.6679C11.0104 15.0092 11.3305 14.0386 11.3305 12.7559C11.3305 11.4732 11.0104 10.5112 10.3701 9.86989C9.72989 9.21122 8.98581 8.88189 8.13791 8.88189C7.25541 8.88189 6.49403 9.21122 5.85378 9.86989C5.23084 10.5112 4.91936 11.4732 4.91936 12.7559C4.91936 14.0386 5.23084 15.0092 5.85378 15.6679C6.49403 16.3092 7.24676 16.6299 8.11196 16.6299Z" fill="url(#paint0_linear_5619_28326)"></path><path d="M16.3775 19.2039V0.483887H19.6999V8.28389C20.1325 7.57322 20.7122 7.01855 21.439 6.61989C22.183 6.20389 23.0309 5.99589 23.9827 5.99589C25.5746 5.99589 26.8032 6.49855 27.6684 7.50389C28.5509 8.50922 28.9922 9.98255 28.9922 11.9239V19.2039H25.6958V12.2359C25.6958 11.1266 25.4708 10.2772 25.0209 9.68789C24.5883 9.09855 23.8961 8.80389 22.9444 8.80389C22.01 8.80389 21.2313 9.13322 20.6084 9.79189C20.0027 10.4506 19.6999 11.3692 19.6999 12.5479V19.2039H16.3775Z" fill="url(#paint1_linear_5619_28326)"></path><path d="M32.6623 4.30589C32.0567 4.30589 31.5549 4.12389 31.1569 3.75989C30.7762 3.39589 30.5858 2.93655 30.5858 2.38189C30.5858 1.82722 30.7762 1.37655 31.1569 1.02989C31.5549 0.665886 32.0567 0.483887 32.6623 0.483887C33.268 0.483887 33.7611 0.665886 34.1418 1.02989C34.5398 1.37655 34.7388 1.82722 34.7388 2.38189C34.7388 2.93655 34.5398 3.39589 34.1418 3.75989C33.7611 4.12389 33.268 4.30589 32.6623 4.30589ZM31.0011 19.2039V6.30789H34.3235V19.2039H31.0011Z" fill="url(#paint2_linear_5619_28326)"></path><path d="M42.671 19.5159C41.4251 19.5159 40.3004 19.2299 39.2967 18.6579C38.3104 18.0859 37.5231 17.2972 36.9347 16.2919C36.3637 15.2692 36.0782 14.0906 36.0782 12.7559C36.0782 11.4212 36.3724 10.2512 36.9607 9.24589C37.549 8.22322 38.3364 7.42589 39.3227 6.85389C40.3263 6.28189 41.4511 5.99589 42.697 5.99589C43.9256 5.99589 45.033 6.28189 46.0193 6.85389C47.023 7.42589 47.8103 8.22322 48.3814 9.24589C48.9697 10.2512 49.2639 11.4212 49.2639 12.7559C49.2639 14.0906 48.9697 15.2692 48.3814 16.2919C47.8103 17.2972 47.023 18.0859 46.0193 18.6579C45.0157 19.2299 43.8996 19.5159 42.671 19.5159ZM42.671 16.6299C43.5362 16.6299 44.2889 16.3092 44.9292 15.6679C45.5694 15.0092 45.8896 14.0386 45.8896 12.7559C45.8896 11.4732 45.5694 10.5112 44.9292 9.86989C44.2889 9.21122 43.5449 8.88189 42.697 8.88189C41.8145 8.88189 41.0531 9.21122 40.4128 9.86989C39.7899 10.5112 39.4784 11.4732 39.4784 12.7559C39.4784 14.0386 39.7899 15.0092 40.4128 15.6679C41.0531 16.3092 41.8058 16.6299 42.671 16.6299Z" fill="url(#paint3_linear_5619_28326)"></path><path d="M7.67071 41.2039C6.32099 41.2039 5.23949 40.8746 4.4262 40.2159C3.61291 39.5572 3.20626 38.3872 3.20626 36.7059V31.0899H1V28.3079H3.20626L3.59561 24.8499H6.52864V28.3079H10.0068V31.0899H6.52864V36.7319C6.52864 37.3559 6.65842 37.7892 6.91798 38.0319C7.19484 38.2572 7.66205 38.3699 8.31961 38.3699H9.92888V41.2039H7.67071Z" fill="url(#paint4_linear_5619_28326)"></path><path d="M11.5615 41.2039V22.4839H14.8839V30.2839C15.3165 29.5732 15.8961 29.0186 16.6229 28.6199C17.367 28.2039 18.2149 27.9959 19.1666 27.9959C20.7586 27.9959 21.9872 28.4986 22.8524 29.5039C23.7349 30.5092 24.1761 31.9826 24.1761 33.9239V41.2039H20.8797V34.2359C20.8797 33.1266 20.6547 32.2772 20.2048 31.6879C19.7722 31.0986 19.0801 30.8039 18.1284 30.8039C17.1939 30.8039 16.4153 31.1332 15.7923 31.7919C15.1867 32.4506 14.8839 33.3692 14.8839 34.5479V41.2039H11.5615Z" fill="url(#paint5_linear_5619_28326)"></path><path d="M32.3107 41.5159C31.0129 41.5159 29.8622 41.2386 28.8586 40.6839C27.8549 40.1292 27.0676 39.3492 26.4965 38.3439C25.9255 37.3386 25.64 36.1772 25.64 34.8599C25.64 33.5252 25.9169 32.3379 26.4706 31.2979C27.0416 30.2579 27.8203 29.4519 28.8066 28.8799C29.8103 28.2906 30.9869 27.9959 32.3367 27.9959C33.5999 27.9959 34.716 28.2732 35.685 28.8279C36.654 29.3826 37.4067 30.1452 37.9432 31.1159C38.4969 32.0692 38.7738 33.1352 38.7738 34.3139C38.7738 34.5046 38.7651 34.7039 38.7478 34.9119C38.7478 35.1199 38.7392 35.3366 38.7218 35.5619H28.9364C29.0056 36.5672 29.3517 37.3559 29.9747 37.9279C30.6149 38.4999 31.3849 38.7859 32.2847 38.7859C32.9596 38.7859 33.522 38.6386 33.9719 38.3439C34.4391 38.0319 34.7852 37.6332 35.0101 37.1479H38.3844C38.1422 37.9626 37.7355 38.7079 37.1645 39.3839C36.6108 40.0426 35.9186 40.5626 35.088 40.9439C34.2747 41.3252 33.3489 41.5159 32.3107 41.5159ZM32.3367 30.6999C31.5234 30.6999 30.8053 30.9339 30.1823 31.4019C29.5594 31.8526 29.1614 32.5459 28.9883 33.4819H35.3995C35.3476 32.6326 35.0361 31.9566 34.4651 31.4539C33.894 30.9512 33.1846 30.6999 32.3367 30.6999Z" fill="url(#paint6_linear_5619_28326)"></path><path d="M40.2703 41.2039V28.3079H43.2033L43.4888 30.0499C43.9041 29.4259 44.4492 28.9319 45.1241 28.5679C45.8162 28.1866 46.6122 27.9959 47.512 27.9959C49.502 27.9959 50.9123 28.7672 51.7429 30.3099C52.2101 29.5992 52.833 29.0359 53.6117 28.6199C54.4077 28.2039 55.2729 27.9959 56.2073 27.9959C57.8858 27.9959 59.1749 28.4986 60.0748 29.5039C60.9746 30.5092 61.4245 31.9826 61.4245 33.9239V41.2039H58.1021V34.2359C58.1021 33.1266 57.8858 32.2772 57.4532 31.6879C57.0379 31.0986 56.389 30.8039 55.5065 30.8039C54.6067 30.8039 53.8799 31.1332 53.3262 31.7919C52.7898 32.4506 52.5215 33.3692 52.5215 34.5479V41.2039H49.1992V34.2359C49.1992 33.1266 48.9829 32.2772 48.5503 31.6879C48.1177 31.0986 47.4515 30.8039 46.5517 30.8039C45.6691 30.8039 44.951 31.1332 44.3973 31.7919C43.8609 32.4506 43.5927 33.3692 43.5927 34.5479V41.2039H40.2703Z" fill="url(#paint7_linear_5619_28326)"></path><path d="M69.5363 41.5159C68.2385 41.5159 67.0878 41.2386 66.0842 40.6839C65.0806 40.1292 64.2932 39.3492 63.7222 38.3439C63.1512 37.3386 62.8656 36.1772 62.8656 34.8599C62.8656 33.5252 63.1425 32.3379 63.6962 31.2979C64.2673 30.2579 65.046 29.4519 66.0323 28.8799C67.0359 28.2906 68.2126 27.9959 69.5623 27.9959C70.8255 27.9959 71.9416 28.2732 72.9106 28.8279C73.8797 29.3826 74.6324 30.1452 75.1688 31.1159C75.7225 32.0692 75.9994 33.1352 75.9994 34.3139C75.9994 34.5046 75.9908 34.7039 75.9735 34.9119C75.9735 35.1199 75.9648 35.3366 75.9475 35.5619H66.1621C66.2313 36.5672 66.5774 37.3559 67.2003 37.9279C67.8406 38.4999 68.6106 38.7859 69.5104 38.7859C70.1852 38.7859 70.7476 38.6386 71.1975 38.3439C71.6647 38.0319 72.0108 37.6332 72.2358 37.1479H75.6101C75.3678 37.9626 74.9612 38.7079 74.3901 39.3839C73.8364 40.0426 73.1442 40.5626 72.3137 40.9439C71.5004 41.3252 70.5746 41.5159 69.5363 41.5159ZM69.5623 30.6999C68.749 30.6999 68.0309 30.9339 67.408 31.4019C66.785 31.8526 66.387 32.5459 66.214 33.4819H72.6251C72.5732 32.6326 72.2617 31.9566 71.6907 31.4539C71.1197 30.9512 70.4102 30.6999 69.5623 30.6999Z" fill="url(#paint8_linear_5619_28326)"></path><path d="M78.9235 41.3859C78.3179 41.3859 77.8161 41.1952 77.4181 40.8139C77.0374 40.4326 76.847 39.9732 76.847 39.4359C76.847 38.8812 77.0374 38.4132 77.4181 38.0319C77.8161 37.6506 78.3179 37.4599 78.9235 37.4599C79.5292 37.4599 80.0223 37.6506 80.403 38.0319C80.801 38.4132 81 38.8812 81 39.4359C81 39.9732 80.801 40.4326 80.403 40.8139C80.0223 41.1952 79.5292 41.3859 78.9235 41.3859Z" fill="url(#paint9_linear_5619_28326)"></path><path d="M8.11196 19.5159C6.86607 19.5159 5.74131 19.2299 4.73767 18.6579C3.75134 18.0859 2.96401 17.2972 2.37567 16.2919C1.80464 15.2692 1.51912 14.0906 1.51912 12.7559C1.51912 11.4212 1.81329 10.2512 2.40163 9.24589C2.98996 8.22322 3.7773 7.42589 4.76363 6.85389C5.76726 6.28189 6.89202 5.99589 8.13791 5.99589C9.3665 5.99589 10.474 6.28189 11.4603 6.85389C12.4639 7.42589 13.2513 8.22322 13.8223 9.24589C14.4106 10.2512 14.7048 11.4212 14.7048 12.7559C14.7048 14.0906 14.4106 15.2692 13.8223 16.2919C13.2513 17.2972 12.4639 18.0859 11.4603 18.6579C10.4567 19.2299 9.34055 19.5159 8.11196 19.5159ZM8.11196 16.6299C8.97716 16.6299 9.72989 16.3092 10.3701 15.6679C11.0104 15.0092 11.3305 14.0386 11.3305 12.7559C11.3305 11.4732 11.0104 10.5112 10.3701 9.86989C9.72989 9.21122 8.98581 8.88189 8.13791 8.88189C7.25541 8.88189 6.49403 9.21122 5.85378 9.86989C5.23084 10.5112 4.91936 11.4732 4.91936 12.7559C4.91936 14.0386 5.23084 15.0092 5.85378 15.6679C6.49403 16.3092 7.24676 16.6299 8.11196 16.6299Z" stroke="url(#paint10_linear_5619_28326)" stroke-width="0.8" mask="url(#path-1-outside-1_5619_28326)"></path><path d="M16.3775 19.2039V0.483887H19.6999V8.28389C20.1325 7.57322 20.7122 7.01855 21.439 6.61989C22.183 6.20389 23.0309 5.99589 23.9827 5.99589C25.5746 5.99589 26.8032 6.49855 27.6684 7.50389C28.5509 8.50922 28.9922 9.98255 28.9922 11.9239V19.2039H25.6958V12.2359C25.6958 11.1266 25.4708 10.2772 25.0209 9.68789C24.5883 9.09855 23.8961 8.80389 22.9444 8.80389C22.01 8.80389 21.2313 9.13322 20.6084 9.79189C20.0027 10.4506 19.6999 11.3692 19.6999 12.5479V19.2039H16.3775Z" stroke="url(#paint11_linear_5619_28326)" stroke-width="0.8" mask="url(#path-1-outside-1_5619_28326)"></path><path d="M32.6623 4.30589C32.0567 4.30589 31.5549 4.12389 31.1569 3.75989C30.7762 3.39589 30.5858 2.93655 30.5858 2.38189C30.5858 1.82722 30.7762 1.37655 31.1569 1.02989C31.5549 0.665886 32.0567 0.483887 32.6623 0.483887C33.268 0.483887 33.7611 0.665886 34.1418 1.02989C34.5398 1.37655 34.7388 1.82722 34.7388 2.38189C34.7388 2.93655 34.5398 3.39589 34.1418 3.75989C33.7611 4.12389 33.268 4.30589 32.6623 4.30589ZM31.0011 19.2039V6.30789H34.3235V19.2039H31.0011Z" stroke="url(#paint12_linear_5619_28326)" stroke-width="0.8" mask="url(#path-1-outside-1_5619_28326)"></path><path d="M42.671 19.5159C41.4251 19.5159 40.3004 19.2299 39.2967 18.6579C38.3104 18.0859 37.5231 17.2972 36.9347 16.2919C36.3637 15.2692 36.0782 14.0906 36.0782 12.7559C36.0782 11.4212 36.3724 10.2512 36.9607 9.24589C37.549 8.22322 38.3364 7.42589 39.3227 6.85389C40.3263 6.28189 41.4511 5.99589 42.697 5.99589C43.9256 5.99589 45.033 6.28189 46.0193 6.85389C47.023 7.42589 47.8103 8.22322 48.3814 9.24589C48.9697 10.2512 49.2639 11.4212 49.2639 12.7559C49.2639 14.0906 48.9697 15.2692 48.3814 16.2919C47.8103 17.2972 47.023 18.0859 46.0193 18.6579C45.0157 19.2299 43.8996 19.5159 42.671 19.5159ZM42.671 16.6299C43.5362 16.6299 44.2889 16.3092 44.9292 15.6679C45.5694 15.0092 45.8896 14.0386 45.8896 12.7559C45.8896 11.4732 45.5694 10.5112 44.9292 9.86989C44.2889 9.21122 43.5449 8.88189 42.697 8.88189C41.8145 8.88189 41.0531 9.21122 40.4128 9.86989C39.7899 10.5112 39.4784 11.4732 39.4784 12.7559C39.4784 14.0386 39.7899 15.0092 40.4128 15.6679C41.0531 16.3092 41.8058 16.6299 42.671 16.6299Z" stroke="url(#paint13_linear_5619_28326)" stroke-width="0.8" mask="url(#path-1-outside-1_5619_28326)"></path><path d="M7.67071 41.2039C6.32099 41.2039 5.23949 40.8746 4.4262 40.2159C3.61291 39.5572 3.20626 38.3872 3.20626 36.7059V31.0899H1V28.3079H3.20626L3.59561 24.8499H6.52864V28.3079H10.0068V31.0899H6.52864V36.7319C6.52864 37.3559 6.65842 37.7892 6.91798 38.0319C7.19484 38.2572 7.66205 38.3699 8.31961 38.3699H9.92888V41.2039H7.67071Z" stroke="url(#paint14_linear_5619_28326)" stroke-width="0.8" mask="url(#path-1-outside-1_5619_28326)"></path><path d="M11.5615 41.2039V22.4839H14.8839V30.2839C15.3165 29.5732 15.8961 29.0186 16.6229 28.6199C17.367 28.2039 18.2149 27.9959 19.1666 27.9959C20.7586 27.9959 21.9872 28.4986 22.8524 29.5039C23.7349 30.5092 24.1761 31.9826 24.1761 33.9239V41.2039H20.8797V34.2359C20.8797 33.1266 20.6547 32.2772 20.2048 31.6879C19.7722 31.0986 19.0801 30.8039 18.1284 30.8039C17.1939 30.8039 16.4153 31.1332 15.7923 31.7919C15.1867 32.4506 14.8839 33.3692 14.8839 34.5479V41.2039H11.5615Z" stroke="url(#paint15_linear_5619_28326)" stroke-width="0.8" mask="url(#path-1-outside-1_5619_28326)"></path><path d="M32.3107 41.5159C31.0129 41.5159 29.8622 41.2386 28.8586 40.6839C27.8549 40.1292 27.0676 39.3492 26.4965 38.3439C25.9255 37.3386 25.64 36.1772 25.64 34.8599C25.64 33.5252 25.9169 32.3379 26.4706 31.2979C27.0416 30.2579 27.8203 29.4519 28.8066 28.8799C29.8103 28.2906 30.9869 27.9959 32.3367 27.9959C33.5999 27.9959 34.716 28.2732 35.685 28.8279C36.654 29.3826 37.4067 30.1452 37.9432 31.1159C38.4969 32.0692 38.7738 33.1352 38.7738 34.3139C38.7738 34.5046 38.7651 34.7039 38.7478 34.9119C38.7478 35.1199 38.7392 35.3366 38.7218 35.5619H28.9364C29.0056 36.5672 29.3517 37.3559 29.9747 37.9279C30.6149 38.4999 31.3849 38.7859 32.2847 38.7859C32.9596 38.7859 33.522 38.6386 33.9719 38.3439C34.4391 38.0319 34.7852 37.6332 35.0101 37.1479H38.3844C38.1422 37.9626 37.7355 38.7079 37.1645 39.3839C36.6108 40.0426 35.9186 40.5626 35.088 40.9439C34.2747 41.3252 33.3489 41.5159 32.3107 41.5159ZM32.3367 30.6999C31.5234 30.6999 30.8053 30.9339 30.1823 31.4019C29.5594 31.8526 29.1614 32.5459 28.9883 33.4819H35.3995C35.3476 32.6326 35.0361 31.9566 34.4651 31.4539C33.894 30.9512 33.1846 30.6999 32.3367 30.6999Z" stroke="url(#paint16_linear_5619_28326)" stroke-width="0.8" mask="url(#path-1-outside-1_5619_28326)"></path><path d="M40.2703 41.2039V28.3079H43.2033L43.4888 30.0499C43.9041 29.4259 44.4492 28.9319 45.1241 28.5679C45.8162 28.1866 46.6122 27.9959 47.512 27.9959C49.502 27.9959 50.9123 28.7672 51.7429 30.3099C52.2101 29.5992 52.833 29.0359 53.6117 28.6199C54.4077 28.2039 55.2729 27.9959 56.2073 27.9959C57.8858 27.9959 59.1749 28.4986 60.0748 29.5039C60.9746 30.5092 61.4245 31.9826 61.4245 33.9239V41.2039H58.1021V34.2359C58.1021 33.1266 57.8858 32.2772 57.4532 31.6879C57.0379 31.0986 56.389 30.8039 55.5065 30.8039C54.6067 30.8039 53.8799 31.1332 53.3262 31.7919C52.7898 32.4506 52.5215 33.3692 52.5215 34.5479V41.2039H49.1992V34.2359C49.1992 33.1266 48.9829 32.2772 48.5503 31.6879C48.1177 31.0986 47.4515 30.8039 46.5517 30.8039C45.6691 30.8039 44.951 31.1332 44.3973 31.7919C43.8609 32.4506 43.5927 33.3692 43.5927 34.5479V41.2039H40.2703Z" stroke="url(#paint17_linear_5619_28326)" stroke-width="0.8" mask="url(#path-1-outside-1_5619_28326)"></path><path d="M69.5363 41.5159C68.2385 41.5159 67.0878 41.2386 66.0842 40.6839C65.0806 40.1292 64.2932 39.3492 63.7222 38.3439C63.1512 37.3386 62.8656 36.1772 62.8656 34.8599C62.8656 33.5252 63.1425 32.3379 63.6962 31.2979C64.2673 30.2579 65.046 29.4519 66.0323 28.8799C67.0359 28.2906 68.2126 27.9959 69.5623 27.9959C70.8255 27.9959 71.9416 28.2732 72.9106 28.8279C73.8797 29.3826 74.6324 30.1452 75.1688 31.1159C75.7225 32.0692 75.9994 33.1352 75.9994 34.3139C75.9994 34.5046 75.9908 34.7039 75.9735 34.9119C75.9735 35.1199 75.9648 35.3366 75.9475 35.5619H66.1621C66.2313 36.5672 66.5774 37.3559 67.2003 37.9279C67.8406 38.4999 68.6106 38.7859 69.5104 38.7859C70.1852 38.7859 70.7476 38.6386 71.1975 38.3439C71.6647 38.0319 72.0108 37.6332 72.2358 37.1479H75.6101C75.3678 37.9626 74.9612 38.7079 74.3901 39.3839C73.8364 40.0426 73.1442 40.5626 72.3137 40.9439C71.5004 41.3252 70.5746 41.5159 69.5363 41.5159ZM69.5623 30.6999C68.749 30.6999 68.0309 30.9339 67.408 31.4019C66.785 31.8526 66.387 32.5459 66.214 33.4819H72.6251C72.5732 32.6326 72.2617 31.9566 71.6907 31.4539C71.1197 30.9512 70.4102 30.6999 69.5623 30.6999Z" stroke="url(#paint18_linear_5619_28326)" stroke-width="0.8" mask="url(#path-1-outside-1_5619_28326)"></path><path d="M78.9235 41.3859C78.3179 41.3859 77.8161 41.1952 77.4181 40.8139C77.0374 40.4326 76.847 39.9732 76.847 39.4359C76.847 38.8812 77.0374 38.4132 77.4181 38.0319C77.8161 37.6506 78.3179 37.4599 78.9235 37.4599C79.5292 37.4599 80.0223 37.6506 80.403 38.0319C80.801 38.4132 81 38.8812 81 39.4359C81 39.9732 80.801 40.4326 80.403 40.8139C80.0223 41.1952 79.5292 41.3859 78.9235 41.3859Z" stroke="url(#paint19_linear_5619_28326)" stroke-width="0.8" mask="url(#path-1-outside-1_5619_28326)"></path><path d="M62.4321 15.6182C64.2422 15.6182 65.4453 14.6836 65.4453 13.2979V13.2871C65.4453 12.2344 64.6934 11.5684 63.5439 11.4609V11.4287C64.4517 11.2407 65.1606 10.6123 65.1606 9.64551V9.63477C65.1606 8.41553 64.0864 7.59912 62.416 7.59912C60.7886 7.59912 59.6982 8.47998 59.5908 9.82275L59.5854 9.88721H61.0732L61.0786 9.83887C61.1431 9.2373 61.6587 8.84521 62.416 8.84521C63.1787 8.84521 63.6245 9.22119 63.6245 9.84961V9.86035C63.6245 10.4888 63.0981 10.9185 62.2871 10.9185H61.4224V12.0732H62.3086C63.2432 12.0732 63.7964 12.4814 63.7964 13.2227V13.2334C63.7964 13.8672 63.2593 14.313 62.4268 14.313C61.5889 14.313 61.041 13.8994 60.9712 13.3462L60.9604 13.2871H59.4136L59.4189 13.3569C59.5264 14.6943 60.6758 15.6182 62.4321 15.6182ZM67.0594 15.5752C67.5428 15.5752 67.9296 15.1885 67.9296 14.7051C67.9296 14.2163 67.5428 13.835 67.0594 13.835C66.5707 13.835 66.1893 14.2163 66.1893 14.7051C66.1893 15.1885 66.5707 15.5752 67.0594 15.5752ZM71.7243 15.6182C73.6902 15.6182 74.8825 14.0767 74.8825 11.6113V11.6006C74.8825 9.13525 73.6902 7.59912 71.7243 7.59912C69.7585 7.59912 68.5661 9.13525 68.5661 11.6006V11.6113C68.5661 14.0767 69.7585 15.6182 71.7243 15.6182ZM71.7243 14.3184C70.7575 14.3184 70.2043 13.314 70.2043 11.6113V11.6006C70.2043 9.89795 70.7575 8.89893 71.7243 8.89893C72.6911 8.89893 73.2444 9.89795 73.2444 11.6006V11.6113C73.2444 13.314 72.6911 14.3184 71.7243 14.3184Z" fill="#341D74" fill-opacity="0.75"></path><rect x="56" y="4.48389" width="23" height="14" rx="3" stroke="#341D74" stroke-opacity="0.75" stroke-width="2"></rect><defs><linearGradient id="paint0_linear_5619_28326" x1="1" y1="41.5159" x2="80.8648" y2="41.5159" gradientUnits="userSpaceOnUse"><stop stop-color="#2E1966"></stop><stop offset="1" stop-color="#46279C"></stop></linearGradient><linearGradient id="paint1_linear_5619_28326" x1="1" y1="41.5159" x2="80.8648" y2="41.5159" gradientUnits="userSpaceOnUse"><stop stop-color="#2E1966"></stop><stop offset="1" stop-color="#46279C"></stop></linearGradient><linearGradient id="paint2_linear_5619_28326" x1="1" y1="41.5159" x2="80.8648" y2="41.5159" gradientUnits="userSpaceOnUse"><stop stop-color="#2E1966"></stop><stop offset="1" stop-color="#46279C"></stop></linearGradient><linearGradient id="paint3_linear_5619_28326" x1="1" y1="41.5159" x2="80.8648" y2="41.5159" gradientUnits="userSpaceOnUse"><stop stop-color="#2E1966"></stop><stop offset="1" stop-color="#46279C"></stop></linearGradient><linearGradient id="paint4_linear_5619_28326" x1="1" y1="41.5159" x2="80.8648" y2="41.5159" gradientUnits="userSpaceOnUse"><stop stop-color="#2E1966"></stop><stop offset="1" stop-color="#46279C"></stop></linearGradient><linearGradient id="paint5_linear_5619_28326" x1="1" y1="41.5159" x2="80.8648" y2="41.5159" gradientUnits="userSpaceOnUse"><stop stop-color="#2E1966"></stop><stop offset="1" stop-color="#46279C"></stop></linearGradient><linearGradient id="paint6_linear_5619_28326" x1="1" y1="41.5159" x2="80.8648" y2="41.5159" gradientUnits="userSpaceOnUse"><stop stop-color="#2E1966"></stop><stop offset="1" stop-color="#46279C"></stop></linearGradient><linearGradient id="paint7_linear_5619_28326" x1="1" y1="41.5159" x2="80.8648" y2="41.5159" gradientUnits="userSpaceOnUse"><stop stop-color="#2E1966"></stop><stop offset="1" stop-color="#46279C"></stop></linearGradient><linearGradient id="paint8_linear_5619_28326" x1="1" y1="41.5159" x2="80.8648" y2="41.5159" gradientUnits="userSpaceOnUse"><stop stop-color="#2E1966"></stop><stop offset="1" stop-color="#46279C"></stop></linearGradient><linearGradient id="paint9_linear_5619_28326" x1="1" y1="41.5159" x2="80.8648" y2="41.5159" gradientUnits="userSpaceOnUse"><stop stop-color="#2E1966"></stop><stop offset="1" stop-color="#46279C"></stop></linearGradient><linearGradient id="paint10_linear_5619_28326" x1="1" y1="41.4839" x2="80.8648" y2="41.4839" gradientUnits="userSpaceOnUse"><stop stop-color="#2E1966"></stop><stop offset="1" stop-color="#46279C"></stop></linearGradient><linearGradient id="paint11_linear_5619_28326" x1="1" y1="41.4839" x2="80.8648" y2="41.4839" gradientUnits="userSpaceOnUse"><stop stop-color="#2E1966"></stop><stop offset="1" stop-color="#46279C"></stop></linearGradient><linearGradient id="paint12_linear_5619_28326" x1="1" y1="41.4839" x2="80.8648" y2="41.4839" gradientUnits="userSpaceOnUse"><stop stop-color="#2E1966"></stop><stop offset="1" stop-color="#46279C"></stop></linearGradient><linearGradient id="paint13_linear_5619_28326" x1="1" y1="41.4839" x2="80.8648" y2="41.4839" gradientUnits="userSpaceOnUse"><stop stop-color="#2E1966"></stop><stop offset="1" stop-color="#46279C"></stop></linearGradient><linearGradient id="paint14_linear_5619_28326" x1="1" y1="41.4839" x2="80.8648" y2="41.4839" gradientUnits="userSpaceOnUse"><stop stop-color="#2E1966"></stop><stop offset="1" stop-color="#46279C"></stop></linearGradient><linearGradient id="paint15_linear_5619_28326" x1="1" y1="41.4839" x2="80.8648" y2="41.4839" gradientUnits="userSpaceOnUse"><stop stop-color="#2E1966"></stop><stop offset="1" stop-color="#46279C"></stop></linearGradient><linearGradient id="paint16_linear_5619_28326" x1="1" y1="41.4839" x2="80.8648" y2="41.4839" gradientUnits="userSpaceOnUse"><stop stop-color="#2E1966"></stop><stop offset="1" stop-color="#46279C"></stop></linearGradient><linearGradient id="paint17_linear_5619_28326" x1="1" y1="41.4839" x2="80.8648" y2="41.4839" gradientUnits="userSpaceOnUse"><stop stop-color="#2E1966"></stop><stop offset="1" stop-color="#46279C"></stop></linearGradient><linearGradient id="paint18_linear_5619_28326" x1="1" y1="41.4839" x2="80.8648" y2="41.4839" gradientUnits="userSpaceOnUse"><stop stop-color="#2E1966"></stop><stop offset="1" stop-color="#46279C"></stop></linearGradient><linearGradient id="paint19_linear_5619_28326" x1="1" y1="41.4839" x2="80.8648" y2="41.4839" gradientUnits="userSpaceOnUse"><stop stop-color="#2E1966"></stop><stop offset="1" stop-color="#46279C"></stop></linearGradient></defs></svg> 